<svg id="レイヤー_1" data-name="レイヤー 1" xmlns="http://www.w3.org/2000/svg" viewBox="0 0 1853.08 640.53"><defs><style>.cls-1{fill:#9cd7ff;}.cls-2{fill:#666;}.cls-3{fill:#ffc476;}.cls-4{fill:#d3ff9f;}.cls-5{fill:#fff278;}.cls-6{fill:#ff576b;}.cls-7{fill:#ffc0e4;}.cls-8{fill:#cfa1ff;}.cls-9{fill:#e0e0e0;}</style></defs><title>title</title><rect class="cls-1" x="1322.63" y="459.88" width="127.07" height="86.09" transform="translate(2738.87 786.17) rotate(180)"/><path class="cls-2" d="M373.18,439.38a10.57,10.57,0,0,0,10.21,10.21H539.1a24.7,24.7,0,1,1,0,49.39H383.39a10.2,10.2,0,0,0-10.21,10.2v168.6a24.7,24.7,0,1,1-49.39,0V509.18A9.88,9.88,0,0,0,313.58,499H158.41a24.7,24.7,0,1,1,0-49.39H313.58a10.21,10.21,0,0,0,10.21-10.21V310.52a24.7,24.7,0,1,1,49.39,0Z" transform="translate(-33.46 -219.68)"/><rect class="cls-3" x="787.48" y="408.64" width="132.3" height="142.36" transform="translate(1299.99 -593.49) rotate(90)"/><rect class="cls-4" x="646.86" y="408.36" width="156.77" height="130.71" transform="translate(1165.5 -471.22) rotate(90)"/><rect class="cls-5" x="700.69" y="274.31" width="78.32" height="163.11" transform="translate(1062.26 -603.67) rotate(90)"/><path class="cls-2" d="M373.18,439.38a10.57,10.57,0,0,0,10.21,10.21H539.1a24.7,24.7,0,1,1,0,49.39H383.39a10.2,10.2,0,0,0-10.21,10.2v168.6a24.7,24.7,0,1,1-49.39,0V509.18A9.88,9.88,0,0,0,313.58,499H158.41a24.7,24.7,0,1,1,0-49.39H313.58a10.21,10.21,0,0,0,10.21-10.21V310.52a24.7,24.7,0,1,1,49.39,0Z" transform="translate(-33.46 -219.68)"/><path class="cls-2" d="M673.67,652.55a10.19,10.19,0,0,0,10.2,10.2H950.72a23.09,23.09,0,1,1,0,46.17H665.61A38.5,38.5,0,0,1,627,670.26V444.75c0-5.37-4.83-10.2-10.74-10.2h-8.59a19.94,19.94,0,0,1-16.11-31.68L658.09,310a77.1,77.1,0,0,1,62.29-31.68H851.93c16.64,0,27.38,18.8,18.79,33.29l-36,59.07c-2.69,3.75.53,9.12,4.83,9.12H918a38.5,38.5,0,0,1,38.66,38.66V529.59c0,21.48-17.18,39.19-38.66,39.19H683.87A9.87,9.87,0,0,0,673.67,579Zm41.88-328.07a20.61,20.61,0,0,0-16.65,8.59l-27.38,38.12c-2.69,3.22,0,8.59,4.29,8.59h89.13c6.45,0,12.35-3.75,16.11-9.12l22-37.05c2.68-4.3,0-9.13-4.84-9.13ZM768.17,436.7A9.87,9.87,0,0,0,758,426.5H683.87a9.87,9.87,0,0,0-10.2,10.2v74.63a9.87,9.87,0,0,0,10.2,10.2H758a9.87,9.87,0,0,0,10.21-10.2Zm131.54,84.83a9.87,9.87,0,0,0,10.21-10.2V436.7a9.87,9.87,0,0,0-10.21-10.2H825.08c-5.91,0-10.74,4.29-10.74,10.2v74.63c0,5.91,4.83,10.2,10.74,10.2Z" transform="translate(-33.46 -219.68)"/><path class="cls-2" d="M1220.6,701.28c-11.28,0-20.94-9.67-20.94-21.48V485.43a7.68,7.68,0,0,0-7.52-7.52h-88.59c-3.76,0-7,3.76-7,7.52V680.87c0,11.28-9.67,20.41-20.94,20.41a20.4,20.4,0,0,1-20.41-20.41V472.54A36.21,36.21,0,0,1,1091.74,436h101.48a48.12,48.12,0,0,1,48.32,48.32V679.8C1241.54,691.61,1232.41,701.28,1220.6,701.28Z" transform="translate(-33.46 -219.68)"/><path class="cls-2" d="M1350.53,701.28c-26.84,0-48.32-22-48.32-48.87V472.54A36.21,36.21,0,0,1,1338.72,436H1444.5a36.09,36.09,0,0,1,36,36.51v60.14c0,20.4-16.1,37.05-36,37.05h-90.21a7.67,7.67,0,0,0-7.51,7.51v76.25a7.68,7.68,0,0,0,7.51,7.52h108.46c10.74,0,19.33,9.12,19.33,19.86,0,11.28-8.59,20.41-19.33,20.41Zm-3.75-216.93v36.52a7.67,7.67,0,0,0,7.51,7.51h75.17a7.68,7.68,0,0,0,7.52-7.51V484.35a7.68,7.68,0,0,0-7.52-7.51h-75.17A7.67,7.67,0,0,0,1346.78,484.35Z" transform="translate(-33.46 -219.68)"/><path class="cls-2" d="M1540.07,481.13a4.24,4.24,0,0,0-4.3-4.29h-3.22a20.06,20.06,0,0,1-20.4-20.41,20.39,20.39,0,0,1,20.4-20.4h3.22a4,4,0,0,0,4.3-4.29v-63.9c0-12.35,10.2-22.55,22-22.55a22.68,22.68,0,0,1,22.55,22.55v60.67a7.34,7.34,0,0,0,7.52,7.52h27.92c10.74,0,20.4,9.67,20.4,20.4a20.75,20.75,0,0,1-20.4,20.41h-27.92a7.34,7.34,0,0,0-7.52,7.51V653.49a7.35,7.35,0,0,0,7.52,7.52h36.51c10.2,0,19.33,9.12,19.33,19.86,0,11.28-9.13,20.41-19.33,20.41h-40.27c-26.85,0-48.32-22-48.32-48.87Z" transform="translate(-33.46 -219.68)"/><path class="cls-6" d="M96,291.15l1.37,1.72a37.38,37.38,0,0,1,10.42-1.49,37.15,37.15,0,0,1-10.71-1.57Z" transform="translate(-33.46 -219.68)"/><path class="cls-6" d="M153.48,219.68l-1.26,1.58a70.53,70.53,0,0,1,1.26,13.31,69.71,69.71,0,0,1,1.27-13.31Z" transform="translate(-33.46 -219.68)"/><path class="cls-6" d="M153.48,348.2a70.21,70.21,0,0,1-1.19,12.94l1.19,1.48,1.2-1.48A70.21,70.21,0,0,1,153.48,348.2Z" transform="translate(-33.46 -219.68)"/><path class="cls-6" d="M211,291.15l-1.08-1.34a37.2,37.2,0,0,1-10.71,1.57,37.26,37.26,0,0,1,10.41,1.49Z" transform="translate(-33.46 -219.68)"/><path class="cls-6" d="M199.21,291.38c-12.63,0-24.06-6.36-32.33-16.64s-13.4-24.48-13.4-40.17c0,15.69-5.11,29.89-13.39,40.17s-19.7,16.64-32.33,16.64c12.63,0,24.06,6.36,32.33,16.64s13.39,24.49,13.39,40.18c0-15.69,5.12-29.89,13.4-40.18S186.58,291.38,199.21,291.38Z" transform="translate(-33.46 -219.68)"/><path class="cls-7" d="M33.46,402.65l1.38,1.71a37.26,37.26,0,0,1,10.41-1.48,37.55,37.55,0,0,1-10.71-1.57Z" transform="translate(-33.46 -219.68)"/><path class="cls-7" d="M91,331.18l-1.27,1.57A69.81,69.81,0,0,1,91,346.07a70.64,70.64,0,0,1,1.26-13.32Z" transform="translate(-33.46 -219.68)"/><path class="cls-7" d="M91,459.69a71.12,71.12,0,0,1-1.19,12.95L91,474.12l1.19-1.48A70.24,70.24,0,0,1,91,459.69Z" transform="translate(-33.46 -219.68)"/><path class="cls-7" d="M148.5,402.65l-1.08-1.34a37.62,37.62,0,0,1-10.72,1.57,37.38,37.38,0,0,1,10.42,1.48Z" transform="translate(-33.46 -219.68)"/><path class="cls-7" d="M136.7,402.88c-12.62,0-24.06-6.36-32.33-16.64S91,361.76,91,346.07c0,15.69-5.12,29.89-13.39,40.17s-19.71,16.64-32.34,16.64c12.63,0,24.06,6.36,32.34,16.64S91,444,91,459.69c0-15.68,5.12-29.89,13.39-40.17S124.08,402.88,136.7,402.88Z" transform="translate(-33.46 -219.68)"/><path class="cls-8" d="M1748.12,642.68l1.66,2.06a44.75,44.75,0,0,1,12.53-1.79,44.72,44.72,0,0,1-12.89-1.89Z" transform="translate(-33.46 -219.68)"/><path class="cls-8" d="M1817.33,556.68l-1.52,1.89a84.68,84.68,0,0,1,1.52,16,84.68,84.68,0,0,1,1.52-16Z" transform="translate(-33.46 -219.68)"/><path class="cls-8" d="M1817.33,711.32a84.26,84.26,0,0,1-1.44,15.57l1.44,1.78,1.43-1.78A85.14,85.14,0,0,1,1817.33,711.32Z" transform="translate(-33.46 -219.68)"/><path class="cls-8" d="M1886.54,642.68l-1.3-1.62a44.77,44.77,0,0,1-12.89,1.89,44.8,44.8,0,0,1,12.53,1.79Z" transform="translate(-33.46 -219.68)"/><path class="cls-8" d="M1872.35,643c-15.2,0-28.95-7.65-38.91-20s-16.11-29.46-16.11-48.34c0,18.88-6.16,36-16.12,48.34s-23.71,20-38.9,20c15.19,0,29,7.66,38.9,20s16.12,29.46,16.12,48.34c0-18.88,6.16-36,16.11-48.34S1857.15,643,1872.35,643Z" transform="translate(-33.46 -219.68)"/><path class="cls-9" d="M1665.3,774.22l1.65,2.06a44.87,44.87,0,0,1,12.54-1.79,44.84,44.84,0,0,1-12.9-1.89Z" transform="translate(-33.46 -219.68)"/><path class="cls-9" d="M1734.51,688.22l-1.53,1.89a83.86,83.86,0,0,1,1.53,16,84.68,84.68,0,0,1,1.52-16Z" transform="translate(-33.46 -219.68)"/><path class="cls-9" d="M1734.51,842.86a84.26,84.26,0,0,1-1.44,15.57l1.44,1.79,1.43-1.79A84.27,84.27,0,0,1,1734.51,842.86Z" transform="translate(-33.46 -219.68)"/><path class="cls-9" d="M1803.72,774.22l-1.3-1.62a44.77,44.77,0,0,1-12.89,1.89,44.8,44.8,0,0,1,12.53,1.79Z" transform="translate(-33.46 -219.68)"/><path class="cls-9" d="M1789.53,774.49c-15.2,0-29-7.65-38.91-20s-16.11-29.46-16.11-48.34c0,18.88-6.16,36-16.12,48.34s-23.71,20-38.9,20c15.19,0,29,7.66,38.9,20s16.12,29.46,16.12,48.34c0-18.88,6.15-36,16.11-48.34S1774.33,774.49,1789.53,774.49Z" transform="translate(-33.46 -219.68)"/><path class="cls-2" d="M687.2,833.41c-5.1-9.6,2.1-20.7,8.7-27.7a1.08,1.08,0,0,0-.1-1.7c-3.6-3.4-6.7-6.1-7.8-7.3-3.6-3.6-4.5-7.9-4.2-12.3a4,4,0,1,1,8,.2c-.1,2,.3,3.9,2.6,6.7,1.1.9,3.7,3.6,7.1,7.2a1.53,1.53,0,0,0,2,.1c7.6-6.4,15.1-11.6,18-13.6.3-.2.2-.5-.2-.5h-2.8a4,4,0,0,1-4-4.1,4.06,4.06,0,0,1,3.9-4,43.8,43.8,0,0,1,11.4,1.3c3.8,1.2,5.9,5.4,2,9.1-1.6,1.6-2.7,1.3-6.5,4.1A156.87,156.87,0,0,0,709.1,804a1.27,1.27,0,0,0,0,1.8c4.7,4.3,9.4,8.8,12,11.3,1.2,1.1,2.5,3.1.2,5.6-2.2,2.2-4.1,1.5-5.7.3-1.5-1.5-6.6-6.3-12.3-11.9a1.5,1.5,0,0,0-1.8,0c-3.3,3.3-8.1,8.8-8.1,14.8,0,5.8,7,9.3,18.6,9.3,14,0,19.3-1.69,25.3-2a3.87,3.87,0,0,1,4,3.1A4.16,4.16,0,0,1,737.8,841a140.7,140.7,0,0,1-22.9,2.29C699.6,843.62,690.7,840,687.2,833.41Z" transform="translate(-33.46 -219.68)"/><path class="cls-2" d="M800.2,825a4.07,4.07,0,0,1,5.1-3.1,3.86,3.86,0,0,1,2.9,3,7.9,7.9,0,0,1-.6,4.21c-.4.79-.9,2-1.4,3.29-3.3,7.11-8.5,9.11-14.2,6.61-6.7-3.21-11.7-9.31-14.8-17.71a59.06,59.06,0,0,1-3-20.3c.2-6.7,1.7-13.6,4.2-17.7a4,4,0,0,1,5.6-1.6,3.68,3.68,0,0,1,2.2,3.7c-.2,2.5-1.9,4.7-2.6,7.2-2.5,9.6-2.6,25.8,8.1,36.6,2,1.8,3.4,2.7,4.4,2.7C797.3,831.81,798.4,830,800.2,825Zm42.3-4.4c-6.4-.7-4.3-6.4-4.9-10.2-2-7.6-8.4-12.5-13.4-14.4-3.6-1.3-3.9-4.4-2.9-6.5,1-1.6,3.4-2.4,8.1-.1a36.3,36.3,0,0,1,11.7,9.2,29,29,0,0,1,6.31,15.8C847.51,817.51,846,820.81,842.5,820.61Z" transform="translate(-33.46 -219.68)"/><path class="cls-2" d="M917.6,804.11c-7.9,0-17.6,3.7-21.9,7.7,0,0-7.3,9.4-10.9,13a4.53,4.53,0,0,1-5.8.2c-1.3-1.2-2.4-4,.9-7.3,2.9-2.9,11.3-12.6,15-18.3a88.64,88.64,0,0,1,14.7-17c.3-.1.2-.3-.1-.2-2.7.6-9.1,2.5-13.7,3.1-3.2.4-5.4-1.5-5.3-4a4.5,4.5,0,0,1,4.2-4c3-.1,8.1-1.6,11-2.4s6.3-1.4,9.1-2.6c0,0,6.6-.7,8.2,2.7a6.57,6.57,0,0,1-2.2,8.5,115.61,115.61,0,0,0-14.1,13.2c-.3.3.1.8.5.7,4.3-1.3,18.5-4.6,28.7,5.5,7.2,7.3,8,15.9,4.9,23.3-6.9,15.41-26.7,19.31-36.3,19.61a4.06,4.06,0,0,1-.2-8.11c7.6-.59,14.7-2.4,20.1-5.3a21.84,21.84,0,0,0,9.1-9.3C937.7,812.91,929.3,804.11,917.6,804.11Z" transform="translate(-33.46 -219.68)"/><path class="cls-2" d="M1047.71,828.21c1,1.3,2,2.7,1.9,4.5-.2,3.6-5.4,4.81-7.2,1.1a17.11,17.11,0,0,0-3.11-3.8,1.07,1.07,0,0,0-1.59.3,15.67,15.67,0,0,1-7.51,6.6,17,17,0,0,1-8.7,2.21c-5.3-.1-12.5-2.71-14.7-7.31-2.4-5,1.1-10.9,8.2-14,5.8-2.7,12.4-2.1,17.5-.5a.83.83,0,0,0,1.21-.7c2.29-17.2-1.61-25.6-8.11-26.1-7.9-.5-17.9,7.2-26.4,16.1a3.74,3.74,0,0,0-1,2.5c.1,12.6.3,25.51.4,32.7a3.37,3.37,0,0,1-3.4,3.81h-.1a3.74,3.74,0,0,1-3.9-3.7c-.1-5-.3-14.3-.4-24.71,0-.3-.3-.4-.4-.1a156.49,156.49,0,0,0-9.5,12.8,3.84,3.84,0,0,1-5.2.5,3.55,3.55,0,0,1-.7-5.1c4.6-5.9,11.4-18.1,15.1-26.2a7.06,7.06,0,0,0,.6-2.8v-.7c0-.6-.5-1-1-.7a140.16,140.16,0,0,1-14.6,4.6,4,4,0,0,1-4.4-3,4,4,0,0,1,2.9-4.6c3.1-.4,10.8-3.1,15.9-5a2.25,2.25,0,0,0,1.3-1.8c0-6.6.2-11.7.4-14.1a4,4,0,0,1,4.4-3.4,3.62,3.62,0,0,1,3,4.2c-.1,1.7-.3,5.4-.3,10.3-.1.7.5,1.2,1.3,1.3a5.88,5.88,0,0,1,2.3,1.2c.8.6,1.8,2.1,1.3,4.7-.4,1.8-2.9,6-4.1,8.2-.1.1,0,.1.1.1a122.59,122.59,0,0,1,10.4-8.2c7-5,12.3-6.3,16.5-6a14.1,14.1,0,0,1,10.3,5.1c2.71,3.5,4.21,8,4.9,13.7a75,75,0,0,1-.4,17.6,2.34,2.34,0,0,0,.9,2.1A24.93,24.93,0,0,1,1047.71,828.21ZM1026.9,830a8.22,8.22,0,0,0,4.5-3.7,1.07,1.07,0,0,0-.6-1.6c-6.7-2.6-12-1.4-15.4.91-2.3,1.69-2.4,2.59-1.2,3.79C1016.4,830.81,1022.3,832.21,1026.9,830Z" transform="translate(-33.46 -219.68)"/><path class="cls-2" d="M1107.6,842.62a3.46,3.46,0,0,1-3.4-2.91,3.73,3.73,0,0,1,2.9-4c7.1-1.19,14.3-3.19,19.4-7.4,4.4-3.6,5.3-7.3,4.8-10.6a9.89,9.89,0,0,0-5-7.3c-5.7-3.1-13.6.1-18.5,1.9-8.3,3.2-17.4,6.2-24,5.2a3.55,3.55,0,1,1,1.1-7c5,.9,13.4-2.3,20.4-4.8,3.6-1.4,8.9-3.4,14.2-3.6,9.1-.2,15.6,3.7,18.5,12.9,1.8,7.4-1.9,14.11-6.5,18.2C1123.4,840,1113.1,842.31,1107.6,842.62Z" transform="translate(-33.46 -219.68)"/><path class="cls-2" d="M1187.2,833.41c-5.1-9.6,2.1-20.7,8.7-27.7a1.08,1.08,0,0,0-.1-1.7c-3.6-3.4-6.7-6.1-7.8-7.3-3.6-3.6-4.5-7.9-4.2-12.3a4,4,0,1,1,8,.2c-.1,2,.3,3.9,2.6,6.7,1.1.9,3.7,3.6,7.1,7.2a1.53,1.53,0,0,0,2,.1c7.6-6.4,15.1-11.6,18-13.6.3-.2.2-.5-.2-.5h-2.8a4,4,0,0,1-4-4.1,4.06,4.06,0,0,1,3.9-4,43.8,43.8,0,0,1,11.4,1.3c3.8,1.2,5.91,5.4,2,9.1-1.6,1.6-2.7,1.3-6.5,4.1a156.87,156.87,0,0,0-16.2,13.1,1.27,1.27,0,0,0,0,1.8c4.7,4.3,9.4,8.8,12,11.3,1.2,1.1,2.5,3.1.2,5.6-2.2,2.2-4.1,1.5-5.7.3-1.5-1.5-6.6-6.3-12.3-11.9a1.5,1.5,0,0,0-1.8,0c-3.3,3.3-8.1,8.8-8.1,14.8,0,5.8,7,9.3,18.6,9.3,14,0,19.3-1.69,25.3-2a3.84,3.84,0,0,1,4,3.1,4.13,4.13,0,0,1-3.5,4.71,140.7,140.7,0,0,1-22.9,2.29C1199.6,843.62,1190.7,840,1187.2,833.41Z" transform="translate(-33.46 -219.68)"/></svg>