<svg xmlns="http://www.w3.org/2000/svg" viewBox="0 0 534.49 414"><defs><style>.cls-1,.cls-4{fill:none;stroke:#333;}.cls-1,.cls-4,.cls-7{stroke-linecap:round;stroke-linejoin:round;}.cls-1,.cls-7{stroke-width:6px;}.cls-2{fill:#fff;}.cls-3{fill:#333;}.cls-4{stroke-width:3px;}.cls-5{fill:#ffd7e7;}.cls-6,.cls-7{fill:#ff7bac;}.cls-7{stroke:#fff;}</style></defs><title>ueniikude</title><g id="レイヤー_1" data-name="レイヤー 1"><line class="cls-1" x1="449.21" y1="390.96" x2="531.49" y2="337.41"/><path class="cls-2" d="M374.32,410.5C275.57,410.5,225.5,370,225.5,290c0-47.11,19.34-97.77,53.06-139,32-39.14,71.06-62.51,104.44-62.51,32.58,0,62.29,18.86,83.66,53.1,21.16,33.89,32.81,80.17,32.81,130.3C499.47,392.49,421.06,410.5,374.32,410.5Z"/><path class="cls-3" d="M383,92a81.36,81.36,0,0,1,44.91,13.56c13.53,8.78,25.57,21.52,35.78,37.89C484.51,176.8,496,222.42,496,271.9c0,46.57-12,81.81-35.56,104.74a101.21,101.21,0,0,1-38.28,23.05c-14.2,4.85-30.29,7.31-47.81,7.31-42,0-75.31-7.48-99.12-22.24A91.42,91.42,0,0,1,242,349.64c-8.62-16.26-13-36.32-13-59.64,0-46.31,19.05-96.17,52.27-136.78,15.18-18.55,32.55-34,50.22-44.72C349.33,97.71,367.14,92,383,92m0-7C312,85,222,186.78,222,290s81.26,124,152.32,124S503,375.13,503,271.9,454.05,85,383,85Z"/><path class="cls-4" d="M311.61,183"/><path class="cls-4" d="M394.6,195.76"/><path class="cls-4" d="M335.68,187.54c1.4,1.14,3.5,1.07,7.22.9a19.66,19.66,0,0,0,7.45-1.68,4.75,4.75,0,0,1,3.33-.15,16.81,16.81,0,0,0,7.16,1c3.72-.18,5.8-.64,7.81-1.6"/><line class="cls-4" x1="382.92" y1="157.1" x2="407.92" y2="160.1"/><line class="cls-4" x1="334.5" y1="157.5" x2="311.5" y2="159.5"/><path class="cls-3" d="M303.2,233.51,312,240.2v-2.59a24.71,24.71,0,0,1-8.85,2.85,1.53,1.53,0,0,0-1.3,2.26l2.48,4.29.53.92c.18.31.43,1,.71,1.23l.13.24c.35-.43.4-.59.15-.47-.17-.07-.84.21-1,.25a15.69,15.69,0,0,1-8.7-.87,1.5,1.5,0,0,0-1.84,1,1.53,1.53,0,0,0,1,1.85,18.5,18.5,0,0,0,5.83,1.22,14.31,14.31,0,0,0,5.92-.75,2.5,2.5,0,0,0,1.63-2,4.81,4.81,0,0,0-1-2.75l-3.28-5.67-1.29,2.25a28.45,28.45,0,0,0,10.36-3.26,1.52,1.52,0,0,0,0-2.59l-8.82-6.69a1.51,1.51,0,0,0-2,.54,1.53,1.53,0,0,0,.54,2Z"/><path class="cls-3" d="M392.42,229.81a65.25,65.25,0,0,0-10.17,12.37,1.52,1.52,0,0,0,1.3,2.26,42.93,42.93,0,0,0,16.68-3.07l-1.85-1.85A42.58,42.58,0,0,0,397.1,249a1.52,1.52,0,0,0,1.9,1.45l7.81-2.46c1.83-.58,1.05-3.47-.8-2.89l-7.81,2.45,1.9,1.45a39.59,39.59,0,0,1,1.17-8.66c.26-1-.73-2.3-1.84-1.85a40.76,40.76,0,0,1-15.88,3l1.29,2.25a62.16,62.16,0,0,1,9.7-11.76c1.4-1.33-.72-3.45-2.12-2.12Z"/><path class="cls-5" d="M146.41,209.21c4.9-3,7.1-9.87,4.43-14.94s-10.05-7.06-14.7-3.72-4.89,11.37-.23,14.7c-4.77-2.5-11.39-2.47-14.82,1.68s-.45,12.19,4.9,11.64c-2.85,4.47-5.71,10.35-2.7,14.71,2.27,3.29,7.22,3.9,10.77,2.06s5.82-5.52,7-9.34a14.21,14.21,0,0,0,10,5.27c3.87.13,7.9-2.16,9.14-5.82s-1.09-8.33-4.91-9a9.81,9.81,0,0,0,8.57-7.43c.81-4-1.71-8.45-5.63-9.47s-8.49,2-8.74,6"/><path class="cls-6" d="M147.16,210.5c6.81-4.24,8.88-14.9,2.22-20.28a12.46,12.46,0,0,0-10.82-2.44,10.13,10.13,0,0,0-7.21,7.61,10.72,10.72,0,0,0,3.8,11.15l1.51-2.59c-5.6-2.84-14.84-2.94-17.8,3.8-2.19,5,.94,12.78,7.13,12.32l-1.29-2.25c-2.1,3.31-4.21,7.16-4.2,11.2a8.68,8.68,0,0,0,5.86,8.29,11,11,0,0,0,9.88-1.55,18,18,0,0,0,6.27-9.36l-2.51.66c4.72,5.39,13,8,18.92,2.85a8.78,8.78,0,0,0,2.85-8.57,8.15,8.15,0,0,0-6.1-6.3l-.4,2.94a11.72,11.72,0,0,0,9-5.85,9.85,9.85,0,0,0-.66-10.38A8.57,8.57,0,0,0,148,205.63c-.18,1.92,2.82,1.91,3,0a5.61,5.61,0,0,1,10.45-1.8c2.93,4.81-.88,10.52-6.15,11.15-1.52.19-2.21,2.59-.4,3a5.23,5.23,0,0,1,4,4.36,6,6,0,0,1-2.63,5.91c-4.8,3.42-10.69.7-14.16-3.26a1.51,1.51,0,0,0-2.5.66c-1.64,5.12-6.07,10.83-12.15,8.92-7.19-2.27-2.79-11.08-.18-15.19a1.52,1.52,0,0,0-1.3-2.26c-4.07.31-5.9-5.21-4.29-8.35,2.43-4.73,9.46-4.2,13.45-2.18a1.5,1.5,0,0,0,1.51-2.59c-4.44-3.31-3-11.31,2.1-13.1a9.34,9.34,0,0,1,8,1.17,8.37,8.37,0,0,1,3.69,7.39,10.51,10.51,0,0,1-4.83,8.5c-1.63,1-.13,3.62,1.51,2.59Z"/><path class="cls-5" d="M75.76,286a6.4,6.4,0,0,0-3.54-9.76c-4.29-1.42-10.34.72-12.56,4.44s-.2,8.31,4.21,9.53c-5.12-.19-9.21,4.78-9.58,9-.28,3.13,1,6.45,4.36,7.65s8.7-1,8.82-4.11c-.08,6.19,7.53,10.89,15.2,9.38a11.63,11.63,0,0,0,5.54-2.53c4.74-4.32.52-10.25-3.75-14,4.05-1.87,7.53-5,8.48-8.59a6.69,6.69,0,0,0-5.24-8.28c-4.1-.91-9.6,1.91-10,5.49"/><path class="cls-6" d="M77.05,286.71a7.9,7.9,0,0,0,.25-8.31,9,9,0,0,0-7.46-4.14C64.21,274,56.69,278,57.28,284.48a8.36,8.36,0,0,0,6.19,7.12l.4-2.94c-7.43-.1-13.37,8.48-10.26,15.34a8,8,0,0,0,8.68,4.48c3.07-.48,6.4-2.44,6.68-5.81H66C66,309,72,313,77.77,313.7c6.14.76,15.29-2.5,13.87-10.16-.67-3.61-3.46-6.7-6.12-9.05l-.3,2.36c3.48-1.65,6.92-4.25,8.56-7.84a8.38,8.38,0,0,0-1.26-9.25,9.31,9.31,0,0,0-9.44-2.32c-3,.83-6.34,3-6.84,6.34-.29,1.89,2.6,2.7,2.89.79.35-2.3,2.68-3.67,4.75-4.24,2.38-.66,5.14-.27,6.73,1.79,3.85,5-2.94,10.26-6.9,12.14a1.51,1.51,0,0,0-.31,2.36c2.29,2,5,4.76,5.38,8,.38,3.63-3.54,5.43-6.51,6-5.21,1-13.25-1.57-13.3-7.93,0-2-2.84-1.9-3,0s-3.17,2.81-4.7,2.92A5,5,0,0,1,56,301.94c-1.39-4.82,2.84-10.35,7.85-10.28a1.51,1.51,0,0,0,.4-3c-2.42-.72-4.37-2.87-4-5.52s3-4.51,5.43-5.32,5.55-1.05,7.73.63a4.89,4.89,0,0,1,1,6.69c-1,1.64,1.56,3.14,2.59,1.52Z"/></g><g id="レイヤー_2" data-name="レイヤー 2"><path class="cls-7" d="M231.61,3H26.39C13.47,3,3,15.22,3,30.29V99.71C3,114.78,13.47,127,26.39,127H179.25l61.18,40-21.54-40h12.72C244.53,127,255,114.78,255,99.71V30.29C255,15.22,244.53,3,231.61,3Z"/><path class="cls-2" d="M41,78.24a.82.82,0,0,0,.83.79H56.15a1.93,1.93,0,0,1,0,3.85H24.82a1.93,1.93,0,0,1,0-3.85H36.39a.83.83,0,0,0,.84-.79V50.84a1.9,1.9,0,1,1,3.8,0v9.23a.83.83,0,0,0,.83.8h12a1.92,1.92,0,0,1,0,3.84h-12a.79.79,0,0,0-.83.79Z"/><path class="cls-2" d="M72.51,54.27a1.84,1.84,0,0,1,.75,2.42,30.51,30.51,0,0,0-1.54,8.94,41.77,41.77,0,0,0,1.71,12.86,1.71,1.71,0,0,1-1,2.13,1.87,1.87,0,0,1-2.22-1.09,46.77,46.77,0,0,1-1.75-14,37.1,37.1,0,0,1,.67-5.89C69.84,56.15,70.17,53.22,72.51,54.27ZM79.24,72a17.44,17.44,0,0,0,9.52,3,16.91,16.91,0,0,0,6.14-.91c1-.38,2-.46,2.46.75a1.76,1.76,0,0,1-1.29,2.25,22.43,22.43,0,0,1-7.31,1.26c-7.31-.17-10.48-2.68-11.53-3.6a2.18,2.18,0,0,1-.5-2.84C77.23,71.27,78.07,71.18,79.24,72Zm1-12.83a1.62,1.62,0,0,1-1.42-1.79,1.67,1.67,0,0,1,1.67-1.42c1.3,0,3.8.21,11.57,0a1.45,1.45,0,0,1,1.71,1.5,1.65,1.65,0,0,1-1.38,1.71c-1.08.13-3.88.21-6.64.21C84.42,59.36,81.7,59.32,80.28,59.15Z"/><path class="cls-2" d="M114.61,48.88a1.17,1.17,0,0,1,1,1.8l-4.64,6.76a4,4,0,0,1-3.34,1.8,1.15,1.15,0,0,1-1-1.8l4.51-6.76A4.18,4.18,0,0,1,114.61,48.88ZM112.6,60a4.11,4.11,0,0,1,3.43-1.8,1.17,1.17,0,0,1,1,1.8l-1.51,2.21a2.68,2.68,0,0,0-.46,1.5V82a1.84,1.84,0,0,1-1.83,1.83,1.81,1.81,0,0,1-1.8-1.83V68.68c0-.17-.21-.21-.34-.09a3.69,3.69,0,0,1-3,1.63h-.25a1.16,1.16,0,0,1-.92-1.84Zm27.65-.25a1.82,1.82,0,0,1,1.83,1.83,1.8,1.8,0,0,1-1.83,1.84h-5.14a.83.83,0,0,0-.79.84V82a1.8,1.8,0,0,1-3.59,0V64.21a.85.85,0,0,0-.84-.84h-7.73a1.82,1.82,0,0,1-1.83-1.84,1.84,1.84,0,0,1,1.83-1.83Zm-1.17-10.07a1.8,1.8,0,0,1,0,3.59H124.17a1.8,1.8,0,0,1,0-3.59Z"/><path class="cls-2" d="M167.72,50.38a1.94,1.94,0,0,1,2.38-1,1.74,1.74,0,0,1,1,2.26c-1.83,5-6.59,10.19-8.35,12.15-.63.79-1,1.25-.33,2.13,1.33,1.5,7,8.44,9.65,14.66a1.94,1.94,0,0,1-1,2.34,2.38,2.38,0,0,1-.66.12,1.78,1.78,0,0,1-1.67-1c-2.43-5.72-7.9-12.4-9.07-13.78a4.14,4.14,0,0,1-1.33-3.51,4.58,4.58,0,0,1,1.42-2.92C163.13,58.15,166.18,54,167.72,50.38Z"/><path class="cls-2" d="M218,52.6a1.66,1.66,0,0,1,2.21,1.08,1.72,1.72,0,0,1-1.08,2.26c-9.23,3-13.74,7.77-13.53,13.74.16,2.5,1.83,4.59,5,5.89a17.92,17.92,0,0,0,7.35,1.67,1.76,1.76,0,0,1,0,3.51,24.29,24.29,0,0,1-8.86-1.88c-4.21-2-6.76-5.06-7-8.94v-.08a13.58,13.58,0,0,1,3.72-10.07c.12-.17,0-.33-.13-.29A29.06,29.06,0,0,1,194,60a1.71,1.71,0,0,1-1.55-2.05,1.88,1.88,0,0,1,2.26-1.38C200.75,57,205.81,56.61,218,52.6Zm.71,9.48a8.11,8.11,0,0,1,1.84,2.21,1.55,1.55,0,0,1-.63,2.13,1.59,1.59,0,0,1-2.09-1,8.14,8.14,0,0,0-1.79-2c-.63-.46-1.13-1.25-.71-1.92C216.12,60.41,217.92,61.45,218.67,62.08Zm3.55-2A5,5,0,0,1,224,62.2a1.46,1.46,0,0,1-.58,2.17,1.7,1.7,0,0,1-2-1,5.19,5.19,0,0,0-1.75-2c-.63-.5-1.17-1.21-.71-1.88C219.76,58.36,221.47,59.45,222.22,60.07Z"/></g></svg>