<svg xmlns="http://www.w3.org/2000/svg" viewBox="0 0 534.49 414"><defs><style>.cls-1,.cls-4{fill:none;stroke:#333;}.cls-1,.cls-4,.cls-5{stroke-linecap:round;stroke-linejoin:round;}.cls-1,.cls-5{stroke-width:6px;}.cls-2,.cls-5{fill:#fff;}.cls-3{fill:#333;}.cls-4{stroke-width:3px;}.cls-5{stroke:#ff7bac;opacity:0.8;}</style></defs><title>waiwoositemi</title><g id="レイヤー_1" data-name="レイヤー 1"><line class="cls-1" x1="449.21" y1="390.96" x2="531.49" y2="337.41"/><path class="cls-2" d="M374.32,410.5C275.57,410.5,225.5,370,225.5,290c0-47.11,19.34-97.77,53.06-139,32-39.14,71.06-62.51,104.44-62.51,32.58,0,62.29,18.86,83.66,53.1,21.16,33.89,32.81,80.17,32.81,130.3C499.47,392.49,421.06,410.5,374.32,410.5Z"/><path class="cls-3" d="M383,92a81.36,81.36,0,0,1,44.91,13.56c13.53,8.78,25.57,21.52,35.78,37.89C484.51,176.8,496,222.42,496,271.9c0,46.57-12,81.81-35.56,104.74a101.21,101.21,0,0,1-38.28,23.05c-14.2,4.85-30.29,7.31-47.81,7.31-42,0-75.31-7.48-99.12-22.24A91.42,91.42,0,0,1,242,349.64c-8.62-16.26-13-36.32-13-59.64,0-46.31,19.05-96.17,52.27-136.78,15.18-18.55,32.55-34,50.22-44.72C349.33,97.71,367.14,92,383,92m0-7C312,85,222,186.78,222,290s81.26,124,152.32,124S503,375.13,503,271.9,454.05,85,383,85Z"/><path class="cls-4" d="M311.61,183"/><path class="cls-4" d="M394.6,195.76"/><path class="cls-4" d="M335.68,187.54c1.4,1.14,3.5,1.07,7.22.9a19.66,19.66,0,0,0,7.45-1.68,4.75,4.75,0,0,1,3.33-.15,16.81,16.81,0,0,0,7.16,1c3.72-.18,5.8-.64,7.81-1.6"/><line class="cls-4" x1="382.92" y1="157.1" x2="407.92" y2="160.1"/><line class="cls-4" x1="334.5" y1="157.5" x2="311.5" y2="159.5"/><path class="cls-3" d="M303.2,233.51,312,240.2v-2.59a24.71,24.71,0,0,1-8.85,2.85,1.53,1.53,0,0,0-1.3,2.26l2.48,4.29.53.92c.18.31.43,1,.71,1.23l.13.24c.35-.43.4-.59.15-.47-.17-.07-.84.21-1,.25a15.69,15.69,0,0,1-8.7-.87,1.5,1.5,0,0,0-1.84,1,1.53,1.53,0,0,0,1,1.85,18.5,18.5,0,0,0,5.83,1.22,14.31,14.31,0,0,0,5.92-.75,2.5,2.5,0,0,0,1.63-2,4.81,4.81,0,0,0-1-2.75l-3.28-5.67-1.29,2.25a28.45,28.45,0,0,0,10.36-3.26,1.52,1.52,0,0,0,0-2.59l-8.82-6.69a1.51,1.51,0,0,0-2,.54,1.53,1.53,0,0,0,.54,2Z"/><path class="cls-3" d="M392.42,229.81a65.25,65.25,0,0,0-10.17,12.37,1.52,1.52,0,0,0,1.3,2.26,42.93,42.93,0,0,0,16.68-3.07l-1.85-1.85A42.58,42.58,0,0,0,397.1,249a1.52,1.52,0,0,0,1.9,1.45l7.81-2.46c1.83-.58,1.05-3.47-.8-2.89l-7.81,2.45,1.9,1.45a39.59,39.59,0,0,1,1.17-8.66c.26-1-.73-2.3-1.84-1.85a40.76,40.76,0,0,1-15.88,3l1.29,2.25a62.16,62.16,0,0,1,9.7-11.76c1.4-1.33-.72-3.45-2.12-2.12Z"/></g><g id="レイヤー_2のコピー" data-name="レイヤー 2のコピー"><path class="cls-5" d="M231.61,3H26.39C13.47,3,3,15.22,3,30.29V99.71C3,114.78,13.47,127,26.39,127H179.25l61.18,40-21.54-40h12.72C244.53,127,255,114.78,255,99.71V30.29C255,15.22,244.53,3,231.61,3Z"/><path d="M36.25,32.56A4.68,4.68,0,0,1,40.18,31c3.51.16,10.48.08,12,0,1.08-.13,3-.38,4.26.92,1.08,1.08,1.21,3.13,1.16,4.76a22.56,22.56,0,0,1-6.55,14.41,33.3,33.3,0,0,1-6.39,5A1.66,1.66,0,0,1,43,53.24c10.4-6.14,11.1-14.12,11.31-16.79.17-2.34,0-2.18-2-2.13-1.54.08-8.56.16-12.28,0-1,0-1.17.21-1.29.33-.75.79-.17,2.59.25,4.34a19.93,19.93,0,0,1,.92,5,1.65,1.65,0,1,1-3.3,0,22.19,22.19,0,0,0-.84-4.21C35.25,37.28,34.5,34.44,36.25,32.56Z"/><path d="M91.54,38a2.16,2.16,0,0,0-.37,2A23.79,23.79,0,0,1,91.79,45c.13,4.17-.58,11.86-.62,12.19a1.76,1.76,0,0,1-1.8,1.42,1.58,1.58,0,0,1-1.5-1.71c0-.08.75-7.81.62-11.86,0-1.09-.12-2-.16-2.63a.6.6,0,0,0-1-.34,74,74,0,0,1-8.23,6.39,1.65,1.65,0,1,1-1.88-2.71c5.14-3.72,13.32-9.69,15.79-16a1.7,1.7,0,0,1,2-1,1.76,1.76,0,0,1,1.09,2.05C95.55,33.31,93,36.53,91.54,38Z"/><path d="M134.34,45.84a.82.82,0,0,0-.41.84,31.41,31.41,0,0,1,.33,4.72,1.66,1.66,0,0,1-1.63,1.54A1.53,1.53,0,0,1,131,51.23a30,30,0,0,0-.08-3,.31.31,0,0,0-.5-.17,19.17,19.17,0,0,0-3,1.72c-1.75,1.21-3.63,3-3.13,4.22.46,1.42,2.05,1.83,4.55,1.83s9-.83,12.11-1.12A1.59,1.59,0,0,1,142.53,56a1.72,1.72,0,0,1-1.34,1.88A119.84,119.84,0,0,1,129,59c-2.84,0-6.73-.84-7.77-3.51-.88-2.59-.13-6.22,8.48-10.78.29-.12.46-.5.25-.71a2.37,2.37,0,0,0-1.3-.87c-2.17-.76-4.55.29-6.89,1.5a1.61,1.61,0,1,1-1.67-2.76c1.21-.75,2.76-2.29,4.26-5.43.13-.16-.08-.33-.25-.29a39.61,39.61,0,0,1-5.22.8,1.66,1.66,0,0,1-1.63-1.63,1.68,1.68,0,0,1,1.63-1.63c1.21,0,5-.71,6.47-1a1,1,0,0,0,.71-.71c.38-1.09.67-2.26,1-3.72a1.77,1.77,0,0,1,2-1.38c1.16.29,1.25,1.13,1.08,2.13-.13.54-.33,1.34-.58,2.3-.09.17.12.37.25.29,1.67-.38,3-.71,3.8-1a1.78,1.78,0,0,1,2.34,1,1.86,1.86,0,0,1-1.17,2.05c-1.47.41-3.72,1-5.93,1.5a1,1,0,0,0-.76.63c-.37.83-1.08,2.42-1.71,3.5-.12.21,0,.42.21.38,1.34,0,4.51.08,6,2.8a.52.52,0,0,0,.71.21c2.26-1.21,4.6-2.59,6.81-4.05a1.67,1.67,0,0,1,2.3.37,1.58,1.58,0,0,1-.63,2.34C140.15,42.46,135.81,45,134.34,45.84Z"/><path d="M34.08,67.75a1.78,1.78,0,0,1,1.8,1.76v4a.79.79,0,0,0,.79.79H38a1.8,1.8,0,0,1,0,3.59H36.67a.79.79,0,0,0-.79.8v4.8a.46.46,0,0,0,.66.46l.84-.38a1.23,1.23,0,0,1,1.75,1.09,3,3,0,0,1-1.71,2.75l-.88.42A1.13,1.13,0,0,0,35.88,89v13.61a1.78,1.78,0,0,1-1.8,1.76,1.81,1.81,0,0,1-1.8-1.76v-12a.49.49,0,0,0-.71-.46l-1.25.54a1.21,1.21,0,0,1-1.75-1.13,3,3,0,0,1,1.75-2.71l1.25-.54a1.25,1.25,0,0,0,.71-1.17V78.74a.76.76,0,0,0-.75-.8H30.36a1.8,1.8,0,0,1,0-3.59h1.17a.78.78,0,0,0,.75-.79v-4A1.81,1.81,0,0,1,34.08,67.75Zm26.73,2.38a3,3,0,0,1,3,3V89.05a3,3,0,0,1-3,3H56.26a.84.84,0,0,0-.84.79v9.69a1.78,1.78,0,0,1-3.55,0V92.89a.79.79,0,0,0-.79-.79H46.53a3,3,0,0,1-3-3V73.14a3,3,0,0,1,3-3Zm-8.94,4.18a.8.8,0,0,0-.79-.84H47.7a.85.85,0,0,0-.84.84v4.18a.84.84,0,0,0,.84.83h3.38a.79.79,0,0,0,.79-.83Zm-5,13.57a.81.81,0,0,0,.84.8h3.38a.77.77,0,0,0,.79-.8V83.71a.79.79,0,0,0-.79-.8H47.7a.84.84,0,0,0-.84.8Zm12.82-8.56a.8.8,0,0,0,.8-.83V74.31a.81.81,0,0,0-.8-.84H56.26a.85.85,0,0,0-.84.84v4.18a.84.84,0,0,0,.84.83Zm-4.26,8.56a.81.81,0,0,0,.84.8h3.42a.78.78,0,0,0,.8-.8V83.71a.8.8,0,0,0-.8-.8H56.26a.84.84,0,0,0-.84.8Z"/><path d="M82.23,89.76c.17,4.89,1.29,6.81,2.13,7.52,1.67,1.38,3.92,1.59,6.85.58a26.66,26.66,0,0,0,8.6-5.59,1.55,1.55,0,0,1,2.38.08,1.59,1.59,0,0,1-.17,2.34A26.62,26.62,0,0,1,92.38,101a14.78,14.78,0,0,1-4.51.79,7.69,7.69,0,0,1-5.56-1.92c-2.09-1.76-3.25-5.05-3.42-10A73.06,73.06,0,0,1,79.6,79.7s.08-1.26.17-2.59,0-2.17-.84-2.68a1.59,1.59,0,0,1-.58-2.21,1.66,1.66,0,0,1,2.29-.58A5.49,5.49,0,0,1,82.77,74a11.25,11.25,0,0,1,.29,4C82.81,82.12,82.1,84.79,82.23,89.76Z"/><path d="M140.82,72.6a1.71,1.71,0,0,1,2.25,1.08A1.76,1.76,0,0,1,142,75.94c-9.23,3-13.78,7.77-13.57,13.74.2,2.5,1.87,4.59,5.05,5.89a17.61,17.61,0,0,0,7.31,1.67,1.76,1.76,0,0,1,0,3.51A24.11,24.11,0,0,1,132,98.87c-4.21-2-6.76-5.06-7.05-8.94v-.08a13.65,13.65,0,0,1,3.8-10.07c.08-.17,0-.33-.13-.29a29.13,29.13,0,0,1-11.73.5,1.69,1.69,0,0,1-1.55-2,1.82,1.82,0,0,1,2.26-1.38C123.61,77,128.71,76.61,140.82,72.6Z"/><path d="M173.77,76.44c-.51,1.67-2.13,5.47-3,7.39a.38.38,0,0,0,.33.55,34.25,34.25,0,0,1,7,1.83.43.43,0,0,0,.58-.29,22.81,22.81,0,0,0,.55-5.14A1.61,1.61,0,0,1,181,79.24,1.63,1.63,0,0,1,182.54,81a30.39,30.39,0,0,1-.71,6,.62.62,0,0,0,.37.79,53.88,53.88,0,0,1,4.93,2.46,1.71,1.71,0,0,1,.67,2.22,1.76,1.76,0,0,1-2.22.58c-1.58-.88-3.09-1.54-4.46-2.17a.53.53,0,0,0-.67.25,20.89,20.89,0,0,1-9.57,10.15,1.59,1.59,0,0,1-2.21-.63,1.5,1.5,0,0,1,.67-2.13A17.76,17.76,0,0,0,177.4,90a.47.47,0,0,0-.34-.67,38.22,38.22,0,0,0-7.35-1.84.73.73,0,0,0-.79.42A35.3,35.3,0,0,1,164,95.36a5.2,5.2,0,0,1-8.52-3.3c-.29-3.93,3.14-8,11.11-8.1a.93.93,0,0,0,.84-.46,65.63,65.63,0,0,0,3.3-8.44.35.35,0,0,0-.38-.46c-1.33.21-3.92,1.3-7.56,1.51a1.56,1.56,0,0,1-1.63-1.51,1.63,1.63,0,0,1,1.47-1.75,45,45,0,0,0,6.59-1.13,4,4,0,0,1,3.85.5C173.77,72.81,174.39,74.14,173.77,76.44ZM162,92.89a21.29,21.29,0,0,0,3.42-5.22.24.24,0,0,0-.25-.37c-2.63.21-4.51.92-5.64,2.34s-1,2.67-.16,3.34A1.89,1.89,0,0,0,162,92.89Z"/><path d="M205,95.94a2.5,2.5,0,0,1,2.5,2.47,2.51,2.51,0,1,1-5,0A2.51,2.51,0,0,1,205,95.94Zm19-24.35a1.75,1.75,0,0,1,.33,2.39L211.22,92.39a1.72,1.72,0,0,1-2.38.38,1.76,1.76,0,0,1-.37-2.42L221.54,72A1.78,1.78,0,0,1,224,71.59Z"/></g></svg>